<svg width="20" height="16" viewBox="0 0 20 16" fill="none" xmlns="http://www.w3.org/2000/svg">
<path d="M17.1992 6.35933C16.6133 6.35933 16.0977 6.55308 15.7188 6.8562C14.3242 6.08433 12.4453 5.58745 10.3633 5.53433L11.4453 1.63433L14.8906 2.25308C14.8906 2.92808 15.5781 3.47808 16.4219 3.47808C17.2813 3.47808 17.9727 2.91245 17.9727 2.23745C17.9727 1.56245 17.2852 0.996826 16.4219 0.996826C15.8203 0.996826 15.3008 1.28745 15.043 1.68433L11.2383 1.00933C11.0469 0.968701 10.8594 1.07808 10.8086 1.2312L9.62111 5.5312C7.5547 5.59995 5.69532 6.09683 4.29689 6.8687C3.91798 6.55308 3.38282 6.35933 2.79689 6.35933C0.625012 6.35933 -0.0859259 8.69058 1.90236 9.48745C1.83204 9.73433 1.80079 9.99683 1.80079 10.2593C1.80079 12.8781 5.48829 15 10.0156 15C14.5625 15 18.25 12.8781 18.25 10.2593C18.25 9.99683 18.2149 9.72183 18.1289 9.47495C20.0781 8.67495 19.3594 6.35933 17.1992 6.35933ZM5.0547 9.65308C5.0547 8.96558 5.7422 8.41245 6.60548 8.41245C7.44923 8.41245 8.13673 8.96245 8.13673 9.65308C8.13673 10.3281 7.44923 10.8781 6.60548 10.8781C5.74611 10.8812 5.0547 10.3281 5.0547 9.65308ZM13.4258 12.575C12.0039 13.7125 7.9922 13.7125 6.57032 12.575C6.41407 12.4656 6.41407 12.2718 6.57032 12.1468C6.70704 12.0375 6.94923 12.0375 7.08595 12.1468C8.17189 13.0375 11.7734 13.0531 12.9063 12.1468C13.043 12.0375 13.2852 12.0375 13.4219 12.1468C13.582 12.2718 13.582 12.4656 13.4258 12.575ZM13.3945 10.8812C12.5508 10.8812 11.8633 10.3312 11.8633 9.6562C11.8633 8.9687 12.5508 8.41558 13.3945 8.41558C14.2539 8.41558 14.9453 8.96558 14.9453 9.6562C14.9414 10.3281 14.2539 10.8812 13.3945 10.8812Z" fill="#4ECB71"/>
</svg>
