<svg width="23" height="17" viewBox="0 0 23 17" fill="none" xmlns="http://www.w3.org/2000/svg">
<path d="M9.56513 10.4912L9.11759 12.4221L11.4645 11.5105L13.8115 12.4221L13.363 10.4912L15.2624 9.12267L12.6385 8.84075L11.4645 7.08337L10.2906 8.84075L7.66667 9.12267L9.56513 10.4912Z" fill="#FFD233"/>
<path d="M18.2083 2.83329H16.2917V1.41663H14.375V2.83329H8.625V1.41663H6.70833V2.83329H4.79167C3.73462 2.83329 2.875 3.46867 2.875 4.24996V14.1666C2.875 14.9479 3.73462 15.5833 4.79167 15.5833H18.2083C19.2654 15.5833 20.125 14.9479 20.125 14.1666V4.24996C20.125 3.46867 19.2654 2.83329 18.2083 2.83329ZM18.2103 14.1666H4.79167V5.66663H18.2083L18.2103 14.1666Z" fill="#FFD233"/>
</svg>
