<svg width="18" height="15" viewBox="0 0 18 15" fill="none" xmlns="http://www.w3.org/2000/svg">
<g clip-path="url(#clip0_20_297)">
<path opacity="0.62" d="M10.9997 11.4938C12.8129 9.98394 12.6506 7.40441 10.6408 5.72839C8.62987 4.05285 5.53612 3.91808 3.72234 5.42863C1.91025 6.9373 -0.926441 12.0169 1.08422 13.6927C3.096 15.3687 9.18956 13.0036 11.0011 11.4947" fill="#FBED21"/>
<path opacity="0.62" d="M11.5279 9.95156C13.0337 8.69766 12.8992 6.555 11.2297 5.16281C9.55911 3.7711 6.98849 3.6593 5.48324 4.91391C3.97911 6.16688 1.62196 10.3863 3.29202 11.7764C4.96292 13.1688 10.0254 11.2043 11.527 9.95086" fill="#FBED21"/>
<path d="M7.82409 8.44689C9.53719 9.87447 10.9235 11.3806 11.9152 12.81C12.0535 12.0898 12.6337 10.9559 14.3848 8.5772C17.8627 3.8522 18.2211 0.475329 17.8408 0.15986C17.8293 0.149667 17.8174 0.139817 17.8051 0.130329C17.7934 0.120055 17.7813 0.110127 17.7688 0.100564C17.3908 -0.217483 13.3402 0.08322 7.668 2.9808C4.81359 4.44002 3.4515 4.9226 2.58862 5.03838C4.3034 5.86361 6.11184 7.02002 7.82437 8.4476" fill="#D1D2D3"/>
<path d="M16.7062 0.019165C15.095 0.132837 11.8204 0.859165 7.66687 2.98096C4.81246 4.44018 3.45037 4.92276 2.58749 5.03854C4.30228 5.86377 6.11071 7.02041 7.82324 8.44776C7.89524 8.50776 7.96162 8.5687 8.03418 8.62846C7.50684 4.6183 12.8059 1.95838 16.706 0.019165" fill="#86A7AC"/>
<path d="M9.44355 12.3347C10.3188 13.0645 11.0284 13.8337 11.5349 14.565C11.605 14.1966 11.9014 13.6167 12.796 12.4008C14.5735 9.98554 14.7583 8.26007 14.5626 8.09882C14.557 8.0939 14.5496 8.08898 14.5443 8.08406C14.539 8.07913 14.5325 8.07327 14.526 8.06882C14.3328 7.90663 12.262 8.06015 9.36395 9.54093C7.90511 10.2867 7.20873 10.5335 6.76633 10.5923C7.64411 11.0135 8.5683 11.6053 9.44355 12.3347Z" fill="#DE374B"/>
<path d="M11.7278 10.3337C10.9817 11.1019 10.413 12.0809 10.2631 13.0826C10.7657 13.5783 11.1985 14.0799 11.5346 14.5646C11.6047 14.1962 11.9011 13.6163 12.7957 12.4004C14.2431 10.434 14.6334 8.92506 14.6239 8.34521C13.6634 9.01365 12.5294 9.50654 11.7278 10.3337Z" fill="#C5344D"/>
<path d="M2.6775 6.67033C3.55275 7.40018 4.26206 8.16963 4.76859 8.90064C4.83862 8.53221 5.13478 7.95236 6.03056 6.73643C7.8075 4.32119 7.99116 2.59572 7.79653 2.43424C7.79091 2.42908 7.78416 2.42439 7.77797 2.41947C7.77122 2.41432 7.76616 2.40869 7.75969 2.40424C7.56675 2.24182 5.49563 2.39557 2.59763 3.87635C1.13906 4.62213 0.442688 4.86893 0 4.92775C0.877781 5.34939 1.80225 5.94119 2.6775 6.67033Z" fill="#DE374B"/>
<path d="M3.61238 5.02314C5.18597 4.39525 6.83016 3.6858 7.80806 2.45135C7.80356 2.44619 7.80075 2.43799 7.80075 2.43799C7.79091 2.42932 7.78416 2.42463 7.77797 2.41947C7.77122 2.41432 7.76616 2.40869 7.75969 2.40424C7.56675 2.24182 5.49563 2.39557 2.59763 3.87635C1.13906 4.62213 0.442688 4.86893 0 4.92775C0.59175 5.21205 1.20347 5.57885 1.80759 6.00752C2.35367 5.61363 2.96068 5.28256 3.61238 5.02314Z" fill="#C5344D"/>
<path d="M14.9147 2.59217C15.3996 2.94045 15.7972 3.31452 16.09 3.67452C16.11 3.4835 16.2363 3.17553 16.6427 2.52233C17.4496 1.2253 17.4662 0.331627 17.3587 0.25522C17.3563 0.252204 17.3529 0.249781 17.3489 0.248189C17.3459 0.245375 17.3426 0.242787 17.3391 0.240455C17.2322 0.163111 16.1747 0.30608 14.7487 1.15733C14.0327 1.5867 13.6856 1.7346 13.4612 1.77913C13.93 1.96874 14.4326 2.24436 14.9147 2.59217Z" fill="#243438"/>
</g>
<defs>
<clipPath id="clip0_20_297">
<rect width="18" height="15" fill="white"/>
</clipPath>
</defs>
</svg>
