<svg width="32" height="29" viewBox="0 0 32 29" fill="none" xmlns="http://www.w3.org/2000/svg">
<path fill-rule="evenodd" clip-rule="evenodd" d="M6.8 2.90002C5.84522 2.90002 4.92955 3.24375 4.25442 3.85559C3.57928 4.46743 3.2 5.29726 3.2 6.16252V9.78752C3.2 10.6528 3.57928 11.4826 4.25442 12.0945C4.92955 12.7063 5.84522 13.05 6.8 13.05H10.8C11.7548 13.05 12.6705 12.7063 13.3456 12.0945C14.0207 11.4826 14.4 10.6528 14.4 9.78752V6.16252C14.4 5.29726 14.0207 4.46743 13.3456 3.85559C12.6705 3.24375 11.7548 2.90002 10.8 2.90002H6.8ZM6.8 15.95C5.84522 15.95 4.92955 16.2938 4.25442 16.9056C3.57928 17.5174 3.2 18.3473 3.2 19.2125V22.8375C3.2 23.7028 3.57928 24.5326 4.25442 25.1445C4.92955 25.7563 5.84522 26.1 6.8 26.1H10.8C11.7548 26.1 12.6705 25.7563 13.3456 25.1445C14.0207 24.5326 14.4 23.7028 14.4 22.8375V19.2125C14.4 18.3473 14.0207 17.5174 13.3456 16.9056C12.6705 16.2938 11.7548 15.95 10.8 15.95H6.8ZM21.2 2.90002C20.2452 2.90002 19.3295 3.24375 18.6544 3.85559C17.9793 4.46743 17.6 5.29726 17.6 6.16252V9.78752C17.6 10.6528 17.9793 11.4826 18.6544 12.0945C19.3295 12.7063 20.2452 13.05 21.2 13.05H25.2C26.1548 13.05 27.0705 12.7063 27.7456 12.0945C28.4207 11.4826 28.8 10.6528 28.8 9.78752V6.16252C28.8 5.29726 28.4207 4.46743 27.7456 3.85559C27.0705 3.24375 26.1548 2.90002 25.2 2.90002H21.2ZM21.2 15.95C20.2452 15.95 19.3295 16.2938 18.6544 16.9056C17.9793 17.5174 17.6 18.3473 17.6 19.2125V22.8375C17.6 23.7028 17.9793 24.5326 18.6544 25.1445C19.3295 25.7563 20.2452 26.1 21.2 26.1H25.2C26.1548 26.1 27.0705 25.7563 27.7456 25.1445C28.4207 24.5326 28.8 23.7028 28.8 22.8375V19.2125C28.8 18.3473 28.4207 17.5174 27.7456 16.9056C27.0705 16.2938 26.1548 15.95 25.2 15.95H21.2Z" fill="#D9D9D9" fill-opacity="0.13"/>
</svg>
