<svg width="25" height="18" viewBox="0 0 25 18" fill="none" xmlns="http://www.w3.org/2000/svg">
<path d="M17.6563 6.7575C20.8021 7.31175 22.9167 8.34975 22.9167 9.543C22.9167 11.3183 18.25 12.75 12.5 12.75C6.75001 12.75 2.08334 11.3183 2.08334 9.543C2.08334 8.3505 4.20834 7.30425 7.36459 6.75" stroke="#D99BFF" stroke-width="2" stroke-linecap="round" stroke-linejoin="round"/>
<path d="M15.625 12.75L17.7084 15M8.85419 12.75L7.29169 15M12.5 10.5H12.5104M7.29169 9.75H7.3021M17.7084 9.75H17.7188M7.29169 6.75C7.29169 7.57875 9.62398 8.25 12.5 8.25C15.3761 8.25 17.7084 7.57875 17.7084 6.75V6.72375C17.7084 4.66725 15.3761 3 12.5 3C9.62398 3 7.29169 4.66725 7.29169 6.72375V6.75Z" stroke="#D99BFF" stroke-width="2" stroke-linecap="round" stroke-linejoin="round"/>
</svg>
