<svg width="29" height="18" viewBox="0 0 29 18" fill="none" xmlns="http://www.w3.org/2000/svg">
<g clip-path="url(#clip0_20_295)">
<path d="M15.167 1.1622C14.24 1.16798 13.4526 1.61367 13.3653 2.206C13.3136 2.55764 13.5195 2.88682 13.886 3.11964L14.4431 3.98695L14.2525 5.28809L13.9054 5.63028C12.94 5.65838 12.0369 5.83535 11.2529 6.12568L10.702 5.96687L8.79355 4.44143L8.60236 3.81753C8.69052 3.55391 8.60018 3.2687 8.31488 3.04066C8.01099 2.79767 7.55447 2.67433 7.09746 2.68131C6.77366 2.68603 6.46095 2.75663 6.20634 2.8825C5.55431 3.20442 5.44056 3.79775 5.95245 4.20692C6.23774 4.43502 6.65762 4.55811 7.08623 4.56653L8.00889 4.83132L9.9122 6.35358L10.0283 6.73205C9.53247 7.05424 9.13594 7.43131 8.85885 7.84416L8.26947 7.92684L5.28627 7.43558L4.53813 7.01389C4.35526 6.77028 4.00928 6.57723 3.56217 6.50374C3.41611 6.47953 3.26502 6.46936 3.11406 6.47358C2.4748 6.49186 1.89938 6.76786 1.72803 7.17707C1.51717 7.68065 1.99663 8.1963 2.79838 8.32825C3.25094 8.40274 3.70914 8.33855 4.06094 8.17836L5.0311 8.04303L8.01429 8.53324L8.45712 8.78375C8.42529 8.94011 8.41064 9.09963 8.41168 9.26152C8.41474 9.73854 8.56489 10.1928 8.83481 10.609L8.51413 10.9102L6.46964 11.6251L4.55629 11.6647C4.30045 11.6024 4.02799 11.5712 3.75347 11.5728C3.40745 11.5751 3.05856 11.6298 2.73497 11.7429C1.69946 12.105 1.32564 12.9261 1.90116 13.5761C2.47653 14.2261 3.78363 14.4591 4.8193 14.097C5.39647 13.8952 5.76693 13.5508 5.88303 13.1731L6.93615 12.181L8.99734 11.4597L9.60055 11.4473C10.1523 11.8982 10.8651 12.2613 11.6816 12.5072L11.7776 12.8921L10.8066 14.731L10.0924 15.1709C9.69229 15.27 9.36287 15.4755 9.21703 15.752C8.95626 16.2464 9.38208 16.7792 10.1689 16.9424C10.9559 17.1057 11.8063 16.8367 12.0671 16.3423C12.2144 16.063 12.1408 15.7713 11.9081 15.5409L11.7555 14.9274L12.7247 13.0875L13.1791 12.8078C13.5143 12.8439 13.8539 12.8614 14.194 12.8603C14.5562 12.8591 14.91 12.8363 15.2532 12.795L15.7213 13.078L17.1065 15.6336L17.0154 16.0223C16.8294 16.2132 16.7739 16.4526 16.8977 16.6808C17.1184 17.0879 17.8234 17.305 18.4718 17.166C19.1202 17.027 19.4667 16.584 19.246 16.1769C19.1227 15.9496 18.8486 15.7815 18.5175 15.7016L18.0444 15.4145L16.6659 12.8755L16.762 12.4721C17.4319 12.2592 18.0294 11.9664 18.5214 11.6101L19.1884 11.6542L21.6167 12.6552L22.3843 13.5093C22.4464 13.8364 22.7293 14.1445 23.2018 14.3391C24.0514 14.6891 25.1919 14.5396 25.7501 14.0057C26.3082 13.4717 26.073 12.7546 25.2234 12.4046C24.9166 12.2781 24.5564 12.2123 24.1893 12.2157C24.0146 12.2173 23.8415 12.2348 23.6748 12.2667L22.2719 12.1735L19.735 11.1287L19.3999 10.7561C19.743 10.2904 19.9335 9.77197 19.93 9.22517C19.9295 9.15833 19.9264 9.09173 19.9203 9.02575L20.4684 8.74893L23.4944 8.3595L24.4597 8.52856C24.7956 8.69691 25.2438 8.7742 25.6978 8.71566C26.51 8.61099 27.0349 8.11256 26.8689 7.60254C26.7237 7.15628 26.0982 6.84904 25.4 6.84933C25.2985 6.84918 25.1972 6.85549 25.0976 6.86815C24.6421 6.92686 24.2764 7.10989 24.0728 7.34894L23.2915 7.74396L20.2723 8.13347L19.5862 8.01281C19.4053 7.69748 19.1591 7.40204 18.8536 7.1345L19.0715 6.71711L21.2673 5.35825L22.2153 5.17264C22.4361 5.1872 22.6594 5.17077 22.8689 5.12454C23.0785 5.07831 23.2691 5.00343 23.427 4.90531C24.0178 4.53969 24.0251 3.9429 23.4436 3.57221C23.1346 3.37535 22.7215 3.28193 22.3136 3.29239C21.9406 3.30171 21.5865 3.39832 21.3209 3.56322C20.9886 3.76882 20.8418 4.04763 20.8796 4.3182L20.5692 4.91118L18.37 6.2722L17.7291 6.39702C17.0696 6.07131 16.3042 5.84047 15.4869 5.72078L15.2471 5.34578L15.4409 4.02884L16.2265 3.2549C16.6556 3.06801 16.9547 2.76806 17.0066 2.41589C17.0998 1.78414 16.3599 1.22467 15.3541 1.16682C15.2918 1.16328 15.2293 1.16171 15.1668 1.16213L15.167 1.1622ZM14.1266 7.54942C14.1758 7.5487 14.2246 7.54854 14.2737 7.54896C15.8457 7.56059 17.3698 8.09507 18.6287 9.0393L18.8958 9.23999L18.6313 9.44134C17.253 10.4854 15.706 11.0345 14.1457 11.0278C12.5853 11.0211 11.1067 10.4574 9.86698 9.45953L9.62666 9.26504L9.86952 9.07215C11.1079 8.0884 12.6051 7.57018 14.1266 7.54939L14.1266 7.54942ZM14.8312 8.21057C15.5332 8.37092 16.0367 8.79322 16.0399 9.28998C16.0428 9.74408 15.6265 10.1379 15.0202 10.3281C15.8532 10.1876 16.715 9.83735 17.5738 9.24315C16.7024 8.65666 15.7638 8.31444 14.8312 8.21057L14.8312 8.21057ZM13.5393 8.21881C12.6484 8.33045 11.7574 8.66653 10.917 9.26833C11.7288 9.86209 12.5773 10.2146 13.4292 10.3436C12.8024 10.1615 12.3676 9.76408 12.3646 9.30154C12.3615 8.80915 12.849 8.38665 13.5393 8.21878L13.5393 8.21881Z" fill="#9747FF"/>
</g>
<defs>
<clipPath id="clip0_20_295">
<rect width="27.3826" height="17.1972" fill="white" transform="matrix(0.999995 -0.00315641 0.00641223 0.999979 0.521744 0.464233)"/>
</clipPath>
</defs>
</svg>
